<svg width="698" height="698" viewBox="0 0 698 698" fill="none" xmlns="http://www.w3.org/2000/svg">
    <g opacity="0.3">
        <path opacity="0.25" d="M696.8 349.173C696.8 541.549 541.084 697.5 349 697.5C156.916 697.5 1.20007 541.549 1.20007 349.173C1.20007 156.797 156.916 0.84642 349 0.84642C541.084 0.84642 696.8 156.797 696.8 349.173Z" stroke="white"/>
        <path opacity="0.34" d="M618.848 343.149C618.878 344.484 618.897 345.822 618.907 347.162L618.407 347.165C618.412 347.834 618.414 348.503 618.414 349.173C618.414 349.843 618.412 350.513 618.407 351.181L618.907 351.185C618.897 352.525 618.878 353.862 618.848 355.197L618.348 355.187C618.319 356.519 618.281 357.85 618.232 359.177L618.732 359.196C618.684 360.526 618.625 361.854 618.558 363.18L618.059 363.155C617.99 364.492 617.913 365.826 617.825 367.158L618.324 367.191C618.236 368.525 618.139 369.857 618.032 371.186L617.534 371.145C617.427 372.472 617.311 373.796 617.185 375.117L617.682 375.164C617.556 376.495 617.419 377.823 617.273 379.148L616.776 379.093C616.63 380.421 616.474 381.746 616.309 383.068L616.805 383.13C616.639 384.455 616.464 385.776 616.279 387.095L615.784 387.026C615.599 388.344 615.405 389.658 615.201 390.97L615.695 391.047C615.49 392.371 615.275 393.691 615.05 395.008L614.557 394.924C614.333 396.238 614.099 397.55 613.856 398.858L614.348 398.949C614.104 400.259 613.851 401.567 613.589 402.87L613.099 402.772C612.835 404.081 612.562 405.387 612.28 406.689L612.769 406.795C612.486 408.101 612.193 409.404 611.891 410.704L611.404 410.59C611.102 411.887 610.792 413.181 610.471 414.471L610.957 414.591C610.635 415.887 610.304 417.179 609.964 418.468L609.481 418.34C609.14 419.631 608.79 420.918 608.43 422.201L608.912 422.336C608.552 423.621 608.182 424.903 607.804 426.181L607.325 426.039C606.947 427.315 606.56 428.587 606.163 429.855L606.64 430.004C606.241 431.281 605.833 432.554 605.416 433.823L604.941 433.666C604.524 434.933 604.099 436.195 603.664 437.453L604.137 437.616C603.701 438.877 603.257 440.133 602.803 441.384L602.333 441.214C601.878 442.469 601.415 443.719 600.943 444.964L601.41 445.142C600.936 446.391 600.453 447.636 599.962 448.876L599.497 448.692C599.006 449.929 598.507 451.163 597.998 452.392L598.46 452.583C597.95 453.817 597.43 455.046 596.902 456.27L596.443 456.072C595.915 457.297 595.378 458.517 594.832 459.732L595.288 459.937C594.742 461.155 594.186 462.367 593.622 463.575L593.169 463.364C592.606 464.57 592.033 465.772 591.453 466.969L591.902 467.187C591.319 468.389 590.727 469.586 590.126 470.779L589.68 470.554C589.08 471.744 588.472 472.929 587.856 474.109L588.299 474.34C587.681 475.522 587.055 476.699 586.42 477.871L585.981 477.633C585.346 478.805 584.702 479.973 584.05 481.135L584.486 481.38C583.833 482.544 583.172 483.703 582.502 484.857L582.069 484.606C581.401 485.757 580.724 486.904 580.039 488.044L580.467 488.302C579.78 489.446 579.084 490.586 578.381 491.719L577.956 491.456C577.253 492.588 576.542 493.715 575.822 494.836L576.243 495.106C575.523 496.229 574.794 497.346 574.057 498.458L573.641 498.181C572.905 499.292 572.161 500.397 571.409 501.496L571.822 501.778C571.068 502.88 570.306 503.976 569.536 505.066L569.128 504.778C568.359 505.866 567.583 506.948 566.799 508.025L567.204 508.319C566.418 509.397 565.625 510.47 564.824 511.536L564.424 511.236C563.623 512.301 562.815 513.361 561.999 514.414L562.395 514.72C561.578 515.775 560.753 516.824 559.92 517.867L559.529 517.555C558.698 518.596 557.86 519.63 557.014 520.658L557.4 520.976C556.552 522.007 555.696 523.031 554.833 524.049L554.452 523.726C553.59 524.742 552.721 525.751 551.845 526.754L552.222 527.083C551.344 528.088 550.459 529.087 549.566 530.078L549.195 529.744C548.304 530.734 547.406 531.718 546.5 532.695L546.867 533.034C545.96 534.013 545.045 534.985 544.124 535.951L543.762 535.605C542.842 536.569 541.916 537.525 540.982 538.475L541.339 538.826C540.403 539.777 539.461 540.722 538.511 541.659L538.16 541.304C537.212 542.24 536.258 543.169 535.296 544.091L535.642 544.451C534.679 545.375 533.709 546.292 532.732 547.201L532.392 546.835C531.417 547.743 530.435 548.643 529.447 549.536L529.782 549.907C528.793 550.802 527.796 551.689 526.793 552.569L526.463 552.194C525.462 553.072 524.455 553.943 523.441 554.807L523.765 555.188C522.749 556.053 521.726 556.911 520.697 557.761L520.379 557.376C519.353 558.224 518.32 559.065 517.281 559.898L517.594 560.288C516.553 561.123 515.506 561.95 514.453 562.77L514.146 562.375C513.094 563.193 512.037 564.004 510.973 564.806L511.274 565.205C510.21 566.009 509.139 566.804 508.062 567.592L507.767 567.189C506.692 567.975 505.612 568.754 504.525 569.524L504.814 569.932C503.726 570.704 502.631 571.468 501.531 572.224L501.248 571.812C500.15 572.566 499.047 573.313 497.938 574.051L498.215 574.467C497.105 575.206 495.989 575.937 494.868 576.66L494.597 576.24C493.477 576.961 492.352 577.674 491.221 578.38L491.486 578.804C490.354 579.51 489.216 580.208 488.072 580.898L487.814 580.47C486.675 581.157 485.53 581.836 484.38 582.507L484.632 582.939C483.479 583.611 482.321 584.275 481.158 584.93L480.913 584.495C479.752 585.149 478.586 585.795 477.414 586.432L477.653 586.871C476.482 587.508 475.307 588.136 474.126 588.756L473.893 588.314C472.715 588.932 471.531 589.542 470.342 590.144L470.568 590.59C469.377 591.193 468.181 591.787 466.98 592.373L466.761 591.923C465.565 592.506 464.364 593.081 463.158 593.646L463.371 594.099C462.164 594.665 460.952 595.223 459.735 595.772L459.53 595.316C458.316 595.864 457.097 596.403 455.873 596.933L456.072 597.392C454.848 597.922 453.619 598.443 452.386 598.956L452.194 598.494C450.966 599.004 449.734 599.506 448.497 599.999L448.682 600.463C447.442 600.957 446.198 601.441 444.95 601.917L444.772 601.45C443.527 601.924 442.277 602.389 441.024 602.846L441.195 603.316C439.943 603.771 438.688 604.217 437.428 604.655L437.264 604.182C436.007 604.619 434.746 605.046 433.48 605.464L433.637 605.939C432.369 606.358 431.096 606.768 429.82 607.168L429.67 606.691C428.403 607.089 427.131 607.478 425.855 607.858L425.997 608.337C424.72 608.717 423.439 609.088 422.154 609.449L422.019 608.968C420.736 609.329 419.45 609.681 418.159 610.023L418.288 610.506C416.999 610.848 415.707 611.18 414.412 611.503L414.291 611.018C413.001 611.339 411.708 611.652 410.412 611.954L410.525 612.441C409.226 612.745 407.923 613.039 406.617 613.323L406.511 612.834C405.209 613.118 403.903 613.392 402.594 613.657L402.693 614.147C401.39 614.41 400.083 614.664 398.773 614.909L398.681 614.417C397.373 614.662 396.062 614.896 394.748 615.121L394.832 615.614C393.516 615.84 392.195 616.056 390.872 616.262L390.795 615.768C389.483 615.973 388.168 616.168 386.85 616.354L386.92 616.849C385.602 617.034 384.28 617.21 382.956 617.377L382.894 616.881C381.572 617.047 380.247 617.204 378.919 617.35L378.974 617.848C377.649 617.994 376.321 618.131 374.99 618.258L374.942 617.761C373.621 617.887 372.298 618.004 370.971 618.111L371.012 618.61C369.683 618.717 368.351 618.815 367.017 618.903L366.984 618.404C365.652 618.492 364.318 618.57 362.981 618.638L363.006 619.138C361.681 619.206 360.353 619.264 359.022 619.313L359.004 618.813C357.676 618.861 356.346 618.9 355.013 618.93L355.024 619.43C353.689 619.459 352.351 619.478 351.011 619.488L351.008 618.988C350.339 618.993 349.67 618.996 349 618.996C348.33 618.996 347.661 618.993 346.992 618.988L346.988 619.488C345.648 619.478 344.311 619.459 342.976 619.43L342.987 618.93C341.654 618.9 340.324 618.861 338.996 618.813L338.978 619.313C337.647 619.264 336.319 619.206 334.993 619.138L335.019 618.638C333.682 618.57 332.347 618.492 331.016 618.404L330.983 618.903C329.648 618.815 328.317 618.717 326.988 618.61L327.028 618.111C325.702 618.004 324.378 617.887 323.057 617.761L323.01 618.258C321.679 618.131 320.351 617.994 319.026 617.847L319.081 617.35C317.753 617.204 316.428 617.047 315.106 616.881L315.044 617.377C313.719 617.21 312.398 617.034 311.08 616.849L311.149 616.354C309.831 616.168 308.516 615.973 307.204 615.768L307.127 616.262C305.804 616.056 304.484 615.84 303.167 615.614L303.252 615.121C301.937 614.896 300.626 614.662 299.319 614.417L299.227 614.909C297.917 614.664 296.61 614.41 295.306 614.147L295.405 613.657C294.096 613.392 292.791 613.118 291.489 612.834L291.382 613.323C290.076 613.038 288.774 612.745 287.474 612.441L287.588 611.954C286.292 611.652 284.998 611.339 283.709 611.018L283.588 611.503C282.292 611.18 281 610.848 279.712 610.506L279.84 610.023C278.55 609.681 277.264 609.329 275.981 608.968L275.846 609.449C274.561 609.088 273.279 608.717 272.002 608.337L272.145 607.858C270.869 607.478 269.597 607.089 268.329 606.691L268.18 607.168C266.903 606.768 265.631 606.358 264.363 605.939L264.52 605.464C263.254 605.046 261.993 604.619 260.735 604.182L260.571 604.655C259.312 604.217 258.056 603.771 256.805 603.316L256.976 602.846C255.722 602.389 254.473 601.924 253.228 601.45L253.05 601.917C251.801 601.441 250.558 600.957 249.318 600.463L249.503 599.999C248.266 599.506 247.033 599.004 245.805 598.494L245.613 598.956C244.38 598.443 243.152 597.922 241.928 597.392L242.127 596.933C240.903 596.403 239.684 595.864 238.47 595.316L238.264 595.772C237.048 595.223 235.836 594.665 234.629 594.099L234.842 593.646C233.636 593.081 232.435 592.506 231.239 591.923L231.02 592.373C229.819 591.787 228.623 591.193 227.432 590.59L227.658 590.144C226.469 589.542 225.285 588.932 224.106 588.314L223.874 588.756C222.693 588.136 221.517 587.508 220.347 586.871L220.586 586.432C219.414 585.795 218.248 585.149 217.087 584.495L216.842 584.93C215.678 584.275 214.521 583.611 213.368 582.939L213.62 582.507C212.47 581.836 211.325 581.157 210.186 580.47L209.927 580.898C208.784 580.208 207.646 579.51 206.514 578.804L206.779 578.38C205.648 577.674 204.523 576.961 203.403 576.24L203.132 576.66C202.011 575.937 200.895 575.206 199.785 574.467L200.062 574.051C198.953 573.313 197.85 572.566 196.752 571.812L196.469 572.224C195.369 571.468 194.274 570.704 193.186 569.932L193.475 569.524C192.388 568.754 191.308 567.975 190.233 567.189L189.938 567.592C188.861 566.804 187.79 566.009 186.726 565.205L187.027 564.806C185.963 564.003 184.905 563.193 183.854 562.375L183.547 562.77C182.494 561.95 181.447 561.123 180.406 560.288L180.719 559.898C179.68 559.065 178.647 558.224 177.621 557.376L177.303 557.761C176.274 556.911 175.251 556.053 174.235 555.187L174.559 554.807C173.545 553.943 172.538 553.072 171.536 552.193L171.207 552.569C170.204 551.689 169.207 550.802 168.218 549.907L168.553 549.536C167.565 548.643 166.583 547.742 165.608 546.835L165.268 547.201C164.291 546.291 163.321 545.375 162.358 544.451L162.704 544.09C161.742 543.169 160.788 542.24 159.84 541.304L159.489 541.659C158.539 540.722 157.597 539.777 156.661 538.826L157.018 538.475C156.084 537.525 155.157 536.569 154.238 535.605L153.876 535.951C152.955 534.985 152.04 534.013 151.133 533.034L151.5 532.695C150.594 531.718 149.696 530.734 148.805 529.744L148.433 530.078C147.541 529.087 146.656 528.088 145.778 527.083L146.155 526.754C145.278 525.751 144.41 524.742 143.548 523.726L143.167 524.049C142.304 523.031 141.448 522.007 140.6 520.976L140.986 520.658C140.14 519.63 139.301 518.596 138.47 517.555L138.08 517.867C137.247 516.824 136.422 515.775 135.605 514.72L136 514.414C135.185 513.361 134.376 512.301 133.576 511.236L133.176 511.536C132.375 510.47 131.582 509.397 130.796 508.319L131.2 508.025C130.417 506.948 129.64 505.866 128.872 504.778L128.464 505.066C127.694 503.976 126.932 502.88 126.178 501.778L126.591 501.495C125.839 500.397 125.095 499.292 124.359 498.181L123.943 498.458C123.206 497.346 122.477 496.229 121.757 495.105L122.178 494.835C121.458 493.714 120.747 492.588 120.044 491.455L119.619 491.719C118.916 490.586 118.22 489.446 117.532 488.302L117.961 488.044C117.276 486.904 116.599 485.757 115.931 484.606L115.498 484.857C114.828 483.703 114.167 482.544 113.514 481.379L113.95 481.135C113.298 479.973 112.654 478.805 112.019 477.632L111.579 477.871C110.945 476.699 110.319 475.522 109.701 474.34L110.144 474.108C109.528 472.929 108.92 471.744 108.32 470.554L107.874 470.779C107.273 469.586 106.681 468.389 106.098 467.187L106.547 466.969C105.967 465.772 105.394 464.57 104.831 463.363L104.378 463.575C103.814 462.367 103.258 461.154 102.711 459.937L103.168 459.732C102.622 458.517 102.085 457.297 101.557 456.072L101.098 456.27C100.569 455.046 100.05 453.817 99.5396 452.583L100.002 452.392C99.4932 451.163 98.9936 449.929 98.5028 448.691L98.038 448.876C97.5464 447.635 97.0636 446.391 96.5898 445.141L97.0573 444.964C96.5849 443.719 96.1214 442.468 95.6669 441.214L95.1968 441.384C94.7433 440.133 94.2988 438.876 93.8633 437.616L94.3358 437.453C93.9011 436.195 93.4755 434.933 93.0589 433.666L92.584 433.823C92.1666 432.554 91.7584 431.281 91.3594 430.004L91.8367 429.855C91.4404 428.587 91.0532 427.315 90.6752 426.038L90.1958 426.18C89.8174 424.903 89.4481 423.621 89.0881 422.336L89.5696 422.201C89.2102 420.918 88.8601 419.631 88.5193 418.34L88.0359 418.468C87.6957 417.179 87.3647 415.887 87.0431 414.591L87.5284 414.47C87.2083 413.181 86.8975 411.887 86.596 410.59L86.109 410.703C85.807 409.404 85.5143 408.101 85.2311 406.794L85.7198 406.688C85.4375 405.386 85.1646 404.081 84.9011 402.771L84.411 402.87C84.1486 401.566 83.8956 400.259 83.6521 398.949L84.1437 398.857C83.9006 397.549 83.6669 396.238 83.4427 394.923L82.9498 395.008C82.7252 393.691 82.5101 392.37 82.3046 391.047L82.7987 390.97C82.595 389.658 82.4008 388.343 82.216 387.025L81.7209 387.095C81.5361 385.776 81.3607 384.455 81.195 383.13L81.6911 383.068C81.5257 381.746 81.3698 380.421 81.2235 379.093L80.7265 379.148C80.5806 377.823 80.4442 376.495 80.3174 375.164L80.8152 375.116C80.6893 373.795 80.573 372.472 80.4663 371.145L79.9679 371.185C79.861 369.856 79.7636 368.525 79.6759 367.19L80.1749 367.158C80.0874 365.826 80.0095 364.491 79.9414 363.154L79.442 363.18C79.3744 361.854 79.3164 360.526 79.268 359.195L79.7677 359.177C79.7193 357.849 79.6806 356.519 79.6515 355.186L79.1516 355.197C79.1225 353.862 79.103 352.525 79.0933 351.185L79.5932 351.181C79.5884 350.512 79.5859 349.843 79.5859 349.173C79.5859 348.503 79.5884 347.834 79.5932 347.165L79.0933 347.161C79.103 345.822 79.1225 344.484 79.1516 343.149L79.6515 343.16C79.6806 341.827 79.7194 340.497 79.7677 339.169L79.268 339.151C79.3164 337.82 79.3745 336.492 79.442 335.167L79.9414 335.192C80.0095 333.855 80.0874 332.52 80.1749 331.189L79.676 331.156C79.7636 329.822 79.861 328.49 79.9679 327.161L80.4663 327.201C80.573 325.875 80.6893 324.551 80.8152 323.23L80.3174 323.182C80.4442 321.852 80.5806 320.524 80.7266 319.198L81.2235 319.253C81.3698 317.925 81.5257 316.6 81.6912 315.278L81.195 315.216C81.3608 313.892 81.5361 312.57 81.7209 311.252L82.2161 311.321C82.4008 310.003 82.5951 308.688 82.7988 307.376L82.3047 307.299C82.5102 305.976 82.7253 304.656 82.9499 303.339L83.4427 303.423C83.6669 302.108 83.9006 300.797 84.1437 299.489L83.6521 299.397C83.8957 298.087 84.1486 296.78 84.411 295.476L84.9012 295.575C85.1646 294.266 85.4375 292.96 85.7198 291.658L85.2312 291.552C85.5144 290.245 85.8071 288.942 86.1091 287.643L86.5961 287.756C86.8976 286.459 87.2084 285.166 87.5284 283.876L87.0432 283.755C87.3648 282.459 87.6957 281.167 88.0359 279.879L88.5193 280.006C88.8602 278.716 89.2103 277.429 89.5696 276.146L89.0881 276.011C89.4482 274.725 89.8174 273.444 90.1959 272.166L90.6753 272.308C91.0533 271.032 91.4405 269.76 91.8367 268.491L91.3595 268.342C91.7585 267.065 92.1667 265.793 92.584 264.524L93.059 264.68C93.4755 263.414 93.9012 262.151 94.3359 260.893L93.8633 260.73C94.2988 259.47 94.7434 258.214 95.1969 256.962L95.667 257.132C96.1215 255.878 96.585 254.628 97.0574 253.382L96.5899 253.205C97.0637 251.956 97.5464 250.711 98.0381 249.471L98.5029 249.655C98.9936 248.417 99.4933 247.184 100.002 245.955L99.5397 245.764C100.05 244.53 100.569 243.301 101.098 242.076L101.557 242.274C102.085 241.049 102.622 239.829 103.168 238.614L102.712 238.409C103.258 237.192 103.814 235.979 104.378 234.771L104.831 234.983C105.394 233.776 105.967 232.575 106.547 231.378L106.098 231.16C106.681 229.957 107.273 228.76 107.874 227.568L108.32 227.793C108.92 226.603 109.528 225.418 110.144 224.238L109.701 224.006C110.319 222.824 110.945 221.648 111.579 220.476L112.019 220.714C112.654 219.541 113.298 218.374 113.95 217.212L113.514 216.967C114.167 215.802 114.828 214.643 115.498 213.49L115.931 213.741C116.599 212.589 117.276 211.443 117.961 210.302L117.532 210.045C118.22 208.9 118.916 207.761 119.619 206.627L120.044 206.891C120.747 205.759 121.458 204.632 122.178 203.511L121.757 203.241C122.477 202.118 123.206 201 123.943 199.889L124.359 200.165C125.095 199.055 125.839 197.95 126.591 196.851L126.178 196.569C126.932 195.467 127.694 194.37 128.464 193.28L128.872 193.569C129.64 192.48 130.417 191.398 131.201 190.322L130.796 190.028C131.582 188.949 132.375 187.877 133.176 186.81L133.576 187.111C134.377 186.045 135.185 184.986 136 183.932L135.605 183.626C136.422 182.571 137.247 181.522 138.08 180.48L138.471 180.792C139.301 179.751 140.14 178.716 140.986 177.688L140.6 177.371C141.448 176.34 142.304 175.315 143.167 174.298L143.548 174.621C144.41 173.605 145.278 172.595 146.155 171.592L145.778 171.263C146.656 170.258 147.541 169.26 148.433 168.268L148.805 168.603C149.696 167.612 150.594 166.629 151.5 165.652L151.133 165.312C152.04 164.333 152.955 163.361 153.876 162.396L154.238 162.741C155.157 161.778 156.084 160.821 157.018 159.871L156.661 159.521C157.597 158.569 158.539 157.625 159.489 156.687L159.84 157.043C160.788 156.107 161.742 155.178 162.704 154.256L162.358 153.895C163.321 152.971 164.291 152.055 165.268 151.146L165.608 151.512C166.583 150.604 167.565 149.703 168.553 148.81L168.218 148.439C169.207 147.545 170.204 146.657 171.207 145.777L171.536 146.153C172.538 145.275 173.545 144.403 174.559 143.54L174.235 143.159C175.251 142.294 176.274 141.436 177.303 140.585L177.621 140.971C178.647 140.122 179.68 139.282 180.719 138.448L180.406 138.058C181.447 137.224 182.494 136.396 183.547 135.577L183.854 135.971C184.906 135.153 185.963 134.343 187.027 133.54L186.726 133.141C187.79 132.338 188.861 131.542 189.938 130.754L190.233 131.158C191.308 130.371 192.388 129.593 193.475 128.822L193.186 128.414C194.274 127.642 195.369 126.878 196.469 126.122L196.752 126.534C197.85 125.78 198.953 125.034 200.062 124.296L199.785 123.879C200.895 123.14 202.011 122.409 203.132 121.687L203.403 122.107C204.523 121.385 205.648 120.672 206.779 119.967L206.514 119.542C207.646 118.836 208.784 118.138 209.928 117.449L210.186 117.877C211.325 117.189 212.47 116.51 213.62 115.839L213.368 115.407C214.521 114.735 215.679 114.072 216.842 113.416L217.087 113.852C218.248 113.198 219.414 112.552 220.586 111.914L220.347 111.475C221.518 110.838 222.693 110.21 223.874 109.59L224.106 110.033C225.285 109.414 226.469 108.804 227.658 108.202L227.432 107.756C228.623 107.153 229.819 106.559 231.02 105.974L231.239 106.423C232.435 105.84 233.636 105.266 234.842 104.7L234.629 104.247C235.836 103.681 237.048 103.124 238.264 102.575L238.47 103.031C239.684 102.483 240.903 101.944 242.127 101.414L241.928 100.955C243.152 100.425 244.381 99.9033 245.614 99.3908L245.805 99.8526C247.033 99.3422 248.266 98.8406 249.503 98.3479L249.318 97.8834C250.558 97.3899 251.802 96.9052 253.05 96.4296L253.228 96.8968C254.473 96.4225 255.723 95.9571 256.976 95.5007L256.805 95.0309C258.056 94.5756 259.312 94.1292 260.572 93.692L260.736 94.1643C261.993 93.7279 263.254 93.3005 264.52 92.8822L264.363 92.4075C265.631 91.9885 266.904 91.5786 268.18 91.178L268.33 91.655C269.597 91.2571 270.869 90.8683 272.145 90.4886L272.002 90.0094C273.28 89.6294 274.561 89.2586 275.846 88.897L275.981 89.3784C277.264 89.0175 278.55 88.6659 279.84 88.3237L279.712 87.8404C281.001 87.4987 282.293 87.1663 283.588 86.8433L283.709 87.3285C284.999 87.007 286.292 86.6949 287.588 86.3921L287.475 85.9052C288.774 85.6019 290.076 85.308 291.383 85.0235L291.489 85.5121C292.791 85.2286 294.097 84.9544 295.406 84.6898L295.307 84.1997C296.61 83.9362 297.917 83.6822 299.227 83.4375L299.319 83.929C300.627 83.6849 301.938 83.4502 303.252 83.225L303.168 82.7322C304.484 82.5066 305.804 82.2906 307.128 82.0842L307.205 82.5782C308.517 82.3736 309.832 82.1785 311.15 81.9929L311.08 81.4978C312.398 81.3121 313.72 81.136 315.044 80.9696L315.106 81.4657C316.428 81.2995 317.753 81.1429 319.081 80.996L319.026 80.499C320.351 80.3524 321.679 80.2154 323.01 80.088L323.058 80.5857C324.378 80.4594 325.702 80.3425 327.029 80.2353L326.988 79.7369C328.317 79.6295 329.649 79.5317 330.983 79.4437L331.016 79.9426C332.348 79.8547 333.682 79.7765 335.019 79.708L334.993 79.2087C336.319 79.1408 337.647 79.0825 338.978 79.0339L338.996 79.5335C340.324 79.485 341.654 79.4461 342.987 79.4169L342.976 78.917C344.311 78.8877 345.649 78.8681 346.989 78.8583L346.992 79.3583C347.661 79.3534 348.33 79.351 349 79.351C349.67 79.351 350.339 79.3534 351.008 79.3583L351.012 78.8583C352.352 78.8681 353.689 78.8877 355.024 78.917L355.013 79.4169C356.346 79.4461 357.676 79.485 359.004 79.5335L359.022 79.0339C360.353 79.0825 361.681 79.1408 363.007 79.2087L362.981 79.708C364.318 79.7765 365.653 79.8547 366.984 79.9426L367.017 79.4437C368.352 79.5318 369.683 79.6295 371.012 79.7369L370.972 80.2353C372.298 80.3425 373.622 80.4594 374.943 80.5858L374.99 80.088C376.321 80.2154 377.649 80.3524 378.974 80.499L378.919 80.996C380.247 81.1429 381.572 81.2995 382.894 81.4657L382.956 80.9696C384.281 81.1361 385.602 81.3122 386.92 81.4978L386.851 81.9929C388.169 82.1785 389.484 82.3737 390.795 82.5783L390.873 82.0843C392.196 82.2907 393.516 82.5067 394.833 82.7323L394.748 83.2251C396.062 83.4502 397.374 83.6849 398.681 83.9291L398.773 83.4376C400.083 83.6822 401.39 83.9363 402.694 84.1998L402.595 84.6899C403.904 84.9545 405.209 85.2286 406.511 85.5122L406.618 85.0236C407.924 85.3081 409.226 85.602 410.525 85.9053L410.412 86.3922C411.708 86.695 413.001 87.0071 414.291 87.3285L414.412 86.8434C415.708 87.1664 417 87.4988 418.288 87.8405L418.16 88.3238C419.45 88.666 420.736 89.0176 422.019 89.3784L422.154 88.8971C423.439 89.2586 424.721 89.6294 425.998 90.0095L425.855 90.4887C427.131 90.8683 428.403 91.2571 429.671 91.6551L429.82 91.1781C431.097 91.5787 432.369 91.9885 433.637 92.4076L433.48 92.8823C434.746 93.3005 436.007 93.7279 437.265 94.1644L437.429 93.692C438.688 94.1293 439.944 94.5756 441.195 95.031L441.024 95.5008C442.278 95.9571 443.527 96.4225 444.772 96.8969L444.95 96.4297C446.199 96.9053 447.442 97.3899 448.682 97.8835L448.497 98.348C449.734 98.8407 450.967 99.3422 452.195 99.8526L452.387 99.3909C453.62 99.9034 454.848 100.425 456.072 100.955L455.873 101.414C457.097 101.944 458.316 102.483 459.53 103.031L459.736 102.575C460.952 103.124 462.164 103.681 463.371 104.248L463.158 104.7C464.364 105.266 465.565 105.84 466.761 106.423L466.98 105.974C468.181 106.559 469.377 107.154 470.568 107.756L470.342 108.202C471.531 108.804 472.715 109.414 473.894 110.033L474.126 109.59C475.307 110.21 476.483 110.838 477.653 111.475L477.414 111.914C478.586 112.552 479.752 113.198 480.913 113.852L481.158 113.416C482.322 114.072 483.479 114.735 484.632 115.408L484.38 115.839C485.53 116.51 486.675 117.189 487.814 117.877L488.073 117.449C489.216 118.138 490.354 118.836 491.486 119.543L491.221 119.967C492.352 120.672 493.477 121.385 494.597 122.107L494.868 121.687C495.989 122.41 497.105 123.14 498.215 123.879L497.938 124.296C499.047 125.034 500.15 125.78 501.248 126.534L501.531 126.122C502.631 126.878 503.726 127.643 504.814 128.415L504.525 128.822C505.612 129.593 506.692 130.371 507.767 131.158L508.062 130.754C509.139 131.542 510.21 132.338 511.274 133.141L510.973 133.54C512.037 134.343 513.094 135.153 514.146 135.972L514.453 135.577C515.506 136.396 516.553 137.224 517.594 138.058L517.281 138.448C518.32 139.282 519.353 140.122 520.379 140.971L520.697 140.585C521.726 141.436 522.749 142.294 523.765 143.159L523.441 143.54C524.455 144.403 525.462 145.275 526.464 146.153L526.793 145.777C527.796 146.657 528.793 147.545 529.782 148.439L529.447 148.81C530.435 149.704 531.417 150.604 532.392 151.512L532.732 151.146C533.709 152.055 534.679 152.972 535.642 153.895L535.296 154.256C536.258 155.178 537.212 156.107 538.16 157.043L538.511 156.687C539.461 157.625 540.403 158.569 541.339 159.521L540.982 159.871C541.916 160.821 542.843 161.778 543.762 162.741L544.124 162.396C545.045 163.361 545.96 164.333 546.867 165.312L546.5 165.652C547.406 166.629 548.304 167.612 549.195 168.603L549.567 168.268C550.459 169.26 551.344 170.258 552.222 171.263L551.845 171.592C552.722 172.595 553.59 173.605 554.452 174.621L554.833 174.298C555.696 175.316 556.552 176.34 557.4 177.371L557.014 177.689C557.86 178.717 558.699 179.751 559.529 180.792L559.92 180.48C560.753 181.522 561.578 182.571 562.395 183.626L562 183.932C562.815 184.986 563.623 186.045 564.424 187.111L564.824 186.81C565.625 187.877 566.418 188.949 567.204 190.028L566.799 190.322C567.583 191.398 568.36 192.48 569.128 193.569L569.536 193.28C570.306 194.37 571.068 195.467 571.822 196.569L571.409 196.851C572.161 197.95 572.905 199.055 573.641 200.165L574.057 199.889C574.794 201.001 575.523 202.118 576.243 203.241L575.822 203.511C576.542 204.632 577.253 205.759 577.956 206.891L578.381 206.627C579.084 207.761 579.78 208.9 580.467 210.045L580.039 210.302C580.724 211.443 581.401 212.589 582.069 213.741L582.502 213.49C583.172 214.643 583.833 215.803 584.486 216.967L584.05 217.212C584.702 218.374 585.346 219.541 585.981 220.714L586.421 220.476C587.055 221.648 587.681 222.824 588.299 224.007L587.856 224.238C588.472 225.418 589.08 226.603 589.68 227.793L590.126 227.568C590.727 228.76 591.319 229.957 591.902 231.16L591.453 231.378C592.033 232.575 592.606 233.776 593.169 234.983L593.622 234.771C594.186 235.979 594.742 237.192 595.289 238.41L594.832 238.614C595.378 239.83 595.915 241.05 596.443 242.274L596.902 242.076C597.431 243.301 597.95 244.53 598.46 245.764L597.998 245.955C598.507 247.184 599.006 248.417 599.497 249.655L599.962 249.471C600.454 250.711 600.936 251.956 601.41 253.205L600.943 253.382C601.415 254.628 601.879 255.878 602.333 257.132L602.803 256.962C603.257 258.214 603.701 259.47 604.137 260.73L603.664 260.894C604.099 262.152 604.524 263.414 604.941 264.68L605.416 264.524C605.833 265.793 606.242 267.066 606.641 268.343L606.163 268.492C606.56 269.76 606.947 271.032 607.325 272.308L607.804 272.166C608.183 273.444 608.552 274.725 608.912 276.011L608.43 276.146C608.79 277.429 609.14 278.716 609.481 280.007L609.964 279.879C610.304 281.167 610.635 282.46 610.957 283.756L610.472 283.876C610.792 285.166 611.102 286.459 611.404 287.756L611.891 287.643C612.193 288.943 612.486 290.246 612.769 291.552L612.28 291.658C612.562 292.96 612.835 294.266 613.099 295.575L613.589 295.476C613.851 296.78 614.104 298.087 614.348 299.398L613.856 299.489C614.099 300.797 614.333 302.108 614.557 303.423L615.05 303.339C615.275 304.656 615.49 305.976 615.695 307.3L615.201 307.376C615.405 308.688 615.599 310.003 615.784 311.321L616.279 311.252C616.464 312.57 616.639 313.892 616.805 315.216L616.309 315.278C616.474 316.6 616.63 317.925 616.776 319.253L617.273 319.199C617.419 320.524 617.556 321.852 617.683 323.183L617.185 323.23C617.311 324.551 617.427 325.875 617.534 327.201L618.032 327.161C618.139 328.49 618.236 329.822 618.324 331.156L617.825 331.189C617.913 332.521 617.99 333.855 618.059 335.192L618.558 335.167C618.625 336.492 618.684 337.821 618.732 339.151L618.232 339.169C618.281 340.497 618.319 341.828 618.348 343.16L618.848 343.149Z" stroke="white" stroke-dasharray="4 4"/>
        <path opacity="0.2" d="M539.289 349.173C539.289 454.427 454.093 539.75 349 539.75C243.907 539.75 158.712 454.427 158.712 349.173C158.712 243.92 243.907 158.596 349 158.596C454.093 158.596 539.289 243.92 539.289 349.173Z" stroke="white"/>
        <path d="M127.392 86.2571C127.392 90.0719 124.305 93.1632 120.497 93.1632C116.69 93.1632 113.603 90.0719 113.603 86.2571C113.603 82.4422 116.69 79.351 120.497 79.351C124.305 79.351 127.392 82.4422 127.392 86.2571Z" stroke="#4D3763"/>
        <path d="M122.955 86.2571C122.955 87.6177 121.854 88.7195 120.498 88.7195C119.141 88.7195 118.04 87.6177 118.04 86.2571C118.04 84.8964 119.141 83.7946 120.498 83.7946C121.854 83.7946 122.955 84.8964 122.955 86.2571Z" fill="#2A193C" stroke="#4D3763"/>
    </g>
</svg>
