<svg width="154" height="75" viewBox="0 0 154 75" fill="none" xmlns="http://www.w3.org/2000/svg">
    <path fill-rule="evenodd" clip-rule="evenodd" d="M66.8992 74.0437L86.7452 41.5684L92.6629 49.146L94.6114 40.4137L125.066 64.8063L104.282 37.96L117.272 41.5684L109.261 35.0733L153.5 42.9396L113.736 30.599L126.365 29.8773L114.313 27.4236L152.49 22.2276L112.365 22.8771L121.169 19.0522L109.767 20.2069L131.561 7.14457L102.766 17.1758L105.148 12.052L96.7765 16.0212L98.9415 0L87.2504 15.2995L83.0647 10.2478L80.8275 15.2995L60.5484 0.649506L71.7344 17.1758L60.5484 14.0726L66.4661 19.4852L23.0936 11.5468L60.0433 23.3101L45.1768 24.1039L57.6617 26.7741L0 33.7022L58.3112 31.8258L45.1768 37.0219L60.5484 35.2898L13.6396 60.1154L68.7033 38.9704L63.2908 47.1975L75.4149 40.4137L66.8992 74.0437ZM80.2501 42.4344L86.7452 32.4753L88.9824 35.1455L89.8484 32.1866L100.096 40.0529L93.8898 31.1763L98.5085 32.4753L95.8383 30.166L112.581 32.9805L98.0033 28.5061L102.911 28.0009L98.5085 27.0628L114.818 24.8256L98.0033 25.2586L101.251 23.4544L96.4878 24.1039L106.88 18.114L93.8898 22.7327L94.7558 20.279L90.9309 22.1554L92.5186 14.217L87.106 22.1554L85.0132 19.5574L84.4358 22.1554L75.4871 15.3717L80.611 23.0936L75.9201 21.5059L78.2294 23.8152L61.3423 20.7842L75.9201 25.2586L70.724 25.6916L75.2706 26.8463L55.4245 29.3L75.4871 28.8669L71.0849 30.7433L76.9304 30.166L62.4969 38.0322L79.6728 31.5371L78.2294 34.3517L82.4873 32.1866L80.2501 42.4344Z" fill="url(#paint0_linear_1_579)"/>
    <defs>
        <linearGradient id="paint0_linear_1_579" x1="84.941" y1="13.2788" x2="76.75" y2="74.0437" gradientUnits="userSpaceOnUse">
            <stop stop-color="white"/>
            <stop offset="1" stop-color="#999999"/>
        </linearGradient>
    </defs>
</svg>
