<svg width="810" height="513" viewBox="0 0 810 513" fill="none" xmlns="http://www.w3.org/2000/svg">
    <path opacity="0.56" fill-rule="evenodd" clip-rule="evenodd" d="M289.5 513L427 288L468 340.5L481.5 280L692.5 449L548.5 263L638.5 288L583 243L889.5 297.5L614 212L701.5 207L618 190L882.5 154L604.5 158.5L665.5 132L586.5 140L737.5 49.5L538 119L554.5 83.5L496.5 111L511.5 0L430.5 106L401.5 71L386 106L245.5 4.5L323 119L245.5 97.5L286.5 135L-14 80L242 161.5L139 167L225.5 185.5L-174 233.5L230 220.5L139 256.5L245.5 244.5L-79.5 416.5L302 270L264.5 327L348.5 280L289.5 513ZM382 294L427 225L442.5 243.5L448.5 223L519.5 277.5L476.5 216L508.5 225L490 209L606 228.5L505 197.5L539 194L508.5 187.5L621.5 172L505 175L527.5 162.5L494.5 167L566.5 125.5L476.5 157.5L482.5 140.5L456 153.5L467 98.5L429.5 153.5L415 135.5L411 153.5L349 106.5L384.5 160L352 149L368 165L251 144L352 175L316 178L347.5 186L210 203L349 200L318.5 213L359 209L259 263.5L378 218.5L368 238L397.5 223L382 294Z" fill="url(#paint0_linear_1_578)" fill-opacity="0.1"/>
    <defs>
        <linearGradient id="paint0_linear_1_578" x1="414.5" y1="92" x2="357.75" y2="513" gradientUnits="userSpaceOnUse">
            <stop stop-color="white"/>
            <stop offset="1" stop-color="#999999" stop-opacity="0"/>
        </linearGradient>
    </defs>
</svg>
